<?xml version="1.0" standalone="no"?>
<!DOCTYPE svg PUBLIC "-//W3C//DTD SVG 1.1//EN" "http://www.w3.org/Graphics/SVG/1.1/DTD/svg11.dtd" >
<svg>
<metadata>
Created by FontForge 20110222 at Mon Mar  7 11:06:28 2011
 By www-data
Generated in 2009 by FontLab Studio. Copyright info pending.
</metadata>
<defs>
<font id="TitilliumMaps26L-250wt" horiz-adv-x="530" >
  <font-face 
    font-family="TitilliumMaps26L"
    font-weight="300"
    font-stretch="normal"
    units-per-em="1000"
    panose-1="0 0 0 0 0 0 0 0 0 0"
    ascent="750"
    descent="-250"
    x-height="500"
    cap-height="697"
    bbox="-41 -250 1000 934"
    underline-thickness="30"
    underline-position="-70"
    stemh="58"
    stemv="60"
    unicode-range="U+0020-2122"
  />
    <missing-glyph />
    <glyph glyph-name="space" unicode=" " horiz-adv-x="235" 
 />
    <glyph glyph-name="C" unicode="C" horiz-adv-x="535" 
d="M485 66l3 -56s-106 -20 -183 -20c-204 0 -247 137 -247 356c0 221 42 361 247 361c90 0 184 -20 184 -20l-4 -56s-103 18 -175 18c-165 0 -188 -116 -188 -303c0 -185 24 -297 189 -297c63 0 174 17 174 17z" />
    <glyph glyph-name="c" unicode="c" horiz-adv-x="437" 
d="M268 509c48 0 121 -11 121 -11l-3 -53s-71 10 -109 10c-116 0 -153 -61 -153 -196c0 -145 27 -214 154 -214c38 0 110 8 110 8l2 -52s-76 -11 -123 -11c-160 0 -205 82 -205 269c0 173 59 250 206 250z" />
    <glyph glyph-name="d" unicode="d" horiz-adv-x="540" 
d="M446 722v-722h-60v32s-76 -42 -149 -42c-127 0 -175 100 -175 256c0 172 61 263 208 263c45 0 98 -9 116 -12v225h60zM242 44c66 0 144 40 144 40v362c-19 3 -73 10 -113 10c-110 0 -150 -76 -150 -212c0 -120 33 -200 119 -200z" />
    <glyph glyph-name="e" unicode="e" horiz-adv-x="507" 
d="M254 44c71 0 178 9 178 9l2 -49s-103 -14 -183 -14c-144 0 -193 101 -193 258c0 182 80 261 202 261s192 -72 192 -236l-2 -48h-331c1 -101 31 -181 135 -181zM119 274h273c0 132 -45 183 -132 183c-83 0 -141 -53 -141 -183z" />
    <glyph glyph-name="f" unicode="f" horiz-adv-x="332" 
d="M155 447v-447h-59v447h-64v53h64v51c0 134 38 181 131 181c35 0 89 -6 89 -6v-51s-51 3 -80 3c-60 0 -81 -34 -81 -128v-50h151v-53h-151z" />
    <glyph glyph-name="g" unicode="g" horiz-adv-x="512" 
d="M259 -239c-135 0 -205 41 -205 156c0 58 36 92 82 127c-18 11 -26 36 -26 67c0 17 33 80 33 80c-44 22 -82 64 -82 149c0 108 74 170 176 170c49 0 90 -13 90 -13l153 3v-53h-101c21 -20 39 -53 39 -107c0 -116 -68 -167 -184 -167c-9 0 -35 2 -47 4c0 0 -19 -49 -19 -62
c0 -43 7 -49 119 -49c131 0 189 -25 189 -138s-83 -167 -217 -167zM283 14c-38 0 -106 4 -106 4c-40 -33 -63 -54 -63 -97c0 -78 50 -107 146 -107c100 0 154 39 154 112c0 77 -40 88 -131 88zM234 224c80 0 123 35 123 116c0 80 -40 118 -121 118c-74 0 -115 -44 -115 -118
c0 -75 37 -116 113 -116z" />
    <glyph glyph-name="h" unicode="h" horiz-adv-x="565" 
d="M153 0h-59v722h59v-248s84 35 153 35c135 0 166 -73 166 -249v-260h-60v259c0 136 -16 196 -113 196c-67 0 -146 -34 -146 -34v-421z" />
    <glyph glyph-name="i" unicode="i" horiz-adv-x="228" 
d="M84 0v500h60v-500h-60zM84 623v75h60v-75h-60z" />
    <glyph glyph-name="j" unicode="j" horiz-adv-x="242" 
d="M98 6v494h60v-495c0 -121 -30 -161 -156 -231l-26 51c102 60 122 88 122 181zM98 622v75h60v-75h-60z" />
    <glyph glyph-name="k" unicode="k" horiz-adv-x="492" 
d="M161 0h-60v722h60v-426l76 2l158 202h69l-174 -229l175 -271h-68l-159 240l-77 -3v-237z" />
    <glyph glyph-name="l" unicode="l" horiz-adv-x="236" 
d="M88 0v722h60v-722h-60z" />
    <glyph glyph-name="m" unicode="m" horiz-adv-x="868" 
d="M168 0h-59v500h59v-36s77 45 144 45c68 0 99 -19 126 -50c0 0 105 50 178 50c134 0 166 -71 166 -249v-260h-60v257c0 139 -15 198 -113 198c-68 0 -149 -43 -149 -43c11 -29 19 -86 19 -152v-260h-60v258c0 140 -24 197 -114 197c-68 0 -137 -43 -137 -43v-412z" />
    <glyph glyph-name="A" unicode="A" horiz-adv-x="604" 
d="M36 0l200 697h135l198 -697h-62l-59 191h-294l-56 -191h-62zM281 642l-112 -394h266l-112 394h-42z" />
    <glyph glyph-name="p" unicode="p" horiz-adv-x="541" 
d="M101 -225v725h60v-36s69 45 149 45c122 0 176 -94 176 -253c0 -183 -62 -266 -214 -266c-50 0 -94 7 -111 11v-226h-60zM304 455c-73 0 -143 -43 -143 -43v-358c16 -3 59 -11 108 -11c116 0 156 70 156 215c0 125 -42 197 -121 197z" />
    <glyph glyph-name="q" unicode="q" horiz-adv-x="539" 
d="M250 -10c-141 0 -188 95 -188 251c0 180 62 268 226 268c51 0 158 -9 158 -9v-725h-60v247s-61 -32 -136 -32zM289 456c-127 0 -165 -72 -165 -213c0 -120 30 -199 128 -199c75 0 134 32 134 32v374s-65 6 -97 6z" />
    <glyph glyph-name="r" unicode="r" horiz-adv-x="355" 
d="M92 0v500h60v-71s80 61 175 81v-61c-89 -19 -175 -75 -175 -75v-374h-60z" />
    <glyph glyph-name="s" unicode="s" horiz-adv-x="486" 
d="M406 493l-2 -52s-105 15 -168 15c-61 0 -113 -20 -113 -86c0 -48 23 -68 125 -84c129 -21 175 -46 175 -141c0 -117 -74 -155 -188 -155c-61 0 -168 18 -168 18l4 52s108 -17 159 -17c86 0 132 21 132 99c0 58 -26 71 -132 89c-114 20 -168 45 -168 137
c0 106 86 141 171 141c76 0 173 -16 173 -16z" />
    <glyph glyph-name="u" unicode="u" horiz-adv-x="558" 
d="M404 500h60v-500h-60v35s-76 -45 -145 -45c-133 0 -166 69 -166 249v261h60v-259c0 -143 17 -197 113 -197c68 0 138 42 138 42v414z" />
    <glyph glyph-name="w" unicode="w" horiz-adv-x="758" 
d="M34 500h61l108 -446h23l121 436h64l121 -436h23l108 446h61l-123 -500h-113l-110 412l-111 -412h-111z" />
    <glyph glyph-name="y" unicode="y" horiz-adv-x="481" 
d="M32 500h61l129 -444h36l130 444h61l-213 -725h-61l68 225h-67z" />
    <glyph glyph-name="z" unicode="z" horiz-adv-x="480" 
d="M59 446v54h361l1 -54l-291 -392h291v-54h-360l-2 54l292 392h-292z" />
    <glyph glyph-name="Z" unicode="Z" horiz-adv-x="570" 
d="M65 640v57h440v-84l-369 -536v-20h369v-58h-440v84l369 535v22h-369z" />
    <glyph glyph-name="zero" unicode="0" 
d="M264 670c144 0 234 -74 234 -353c0 -256 -96 -327 -233 -327c-138 0 -234 71 -234 328c0 280 94 352 233 352zM264 613c-109 0 -168 -60 -168 -296c0 -218 65 -270 169 -270s168 52 168 271c0 233 -57 295 -169 295z" />
    <glyph glyph-name="one" unicode="1" 
d="M78 522l203 138h59v-660h-61v591l-172 -118z" />
    <glyph glyph-name="two" unicode="2" 
d="M475 0h-422v56l210 214c79 80 130 139 130 221c0 89 -56 121 -150 121c-68 0 -180 -23 -180 -23l-6 55s110 26 196 26c126 0 204 -49 204 -174c0 -105 -57 -172 -129 -244l-194 -194h341v-58z" />
    <glyph glyph-name="three" unicode="3" 
d="M63 647c0 0 107 23 194 23c142 0 203 -53 203 -169c0 -111 -89 -141 -102 -149c70 -23 119 -54 119 -166c0 -131 -73 -196 -209 -196c-98 0 -214 23 -214 23l8 55s111 -21 201 -20c99 1 150 47 150 135c0 102 -63 129 -142 133h-130v56h129c52 0 126 43 126 124
c0 84 -44 117 -141 117c-88 0 -185 -21 -185 -21z" />
    <glyph glyph-name="five" unicode="5" 
d="M83 660h373v-58h-317l-17 -231s84 43 155 43c119 0 207 -52 207 -195c0 -154 -90 -227 -217 -227c-93 0 -211 26 -211 26l7 55s117 -24 202 -24c88 0 155 57 155 168c0 106 -66 140 -148 140c-77 0 -157 -45 -157 -45l-52 9z" />
    <glyph glyph-name="seven" unicode="7" 
d="M58 602v58h394v-95l-254 -576l-59 19l249 563v31h-330z" />
    <glyph glyph-name="eight" unicode="8" 
d="M268 671c140 0 236 -54 236 -170c0 -86 -40 -124 -122 -155c76 -27 132 -69 132 -165c0 -146 -109 -191 -246 -191c-132 0 -243 44 -243 180c0 104 54 143 124 176c-72 32 -113 71 -113 156c0 114 91 169 232 169zM268 46c106 0 180 31 180 137c0 89 -59 114 -132 133
h-104c-75 -20 -121 -56 -121 -139c0 -99 76 -131 177 -131zM268 614c-106 0 -166 -31 -166 -118c0 -69 37 -102 110 -126h104c77 22 121 57 121 125c0 86 -61 119 -169 119z" />
    <glyph glyph-name="E" unicode="E" horiz-adv-x="567" 
d="M100 0v697h406v-57h-345v-257h285v-56h-285v-270h345v-57h-406z" />
    <glyph glyph-name="F" unicode="F" horiz-adv-x="557" 
d="M100 0v697h407v-57h-346v-289h286v-56h-286v-295h-61z" />
    <glyph glyph-name="G" unicode="G" horiz-adv-x="611" 
d="M354 299v55h185v-341s-139 -23 -218 -23c-206 0 -261 140 -261 357c0 218 52 360 260 360c102 0 219 -25 219 -25l-3 -56s-122 23 -211 23c-168 0 -201 -116 -201 -302s34 -299 200 -299c61 0 149 16 154 16v235h-124z" />
    <glyph glyph-name="H" unicode="H" horiz-adv-x="688" 
d="M527 0v322h-366v-322h-61v697h61v-317h366v317h61v-697h-61z" />
    <glyph glyph-name="K" unicode="K" horiz-adv-x="595" 
d="M474 0l-202 315l-111 -2v-313h-61v697h61v-327l109 2l193 325h72l-210 -349l223 -348h-74z" />
    <glyph glyph-name="Q" unicode="Q" horiz-adv-x="653" 
d="M501 -143l-81 144c-27 -7 -58 -11 -94 -11c-213 0 -266 131 -266 355c0 222 55 362 266 362c212 0 267 -139 267 -362c0 -159 -24 -272 -113 -322l78 -138zM326 47c171 0 203 101 203 298c0 188 -36 305 -203 305c-168 0 -202 -116 -202 -305c0 -190 33 -298 202 -298z
" />
    <glyph glyph-name="R" unicode="R" horiz-adv-x="625" 
d="M364 275l-24 -1h-179v-274h-61v697h243c143 0 216 -69 216 -207c0 -101 -37 -178 -133 -203l142 -287h-68zM496 490c0 96 -51 150 -153 150h-182v-310h183c113 0 152 71 152 160z" />
    <glyph glyph-name="S" unicode="S" horiz-adv-x="534" 
d="M470 690l-4 -55s-134 16 -192 16c-101 0 -156 -43 -156 -123c0 -95 50 -119 172 -144c134 -29 196 -66 196 -182c0 -146 -69 -210 -215 -210c-80 0 -209 17 -209 17l5 56s132 -16 201 -16c103 0 156 47 156 149c0 80 -44 108 -160 131c-141 30 -208 67 -208 198
c0 122 79 182 216 182c82 0 198 -19 198 -19z" />
    <glyph glyph-name="T" unicode="T" horiz-adv-x="495" 
d="M9 639v58h476v-58h-206v-639h-61v639h-209z" />
    <glyph glyph-name="V" unicode="V" horiz-adv-x="587" 
d="M488 697h63l-182 -697h-148l-185 697h63l170 -641h52z" />
    <glyph glyph-name="N" unicode="N" horiz-adv-x="690" 
d="M100 0v697h120l286 -636h23v636h62v-697h-119l-289 636h-22v-636h-61z" />
    <glyph glyph-name="endash" unicode="&#x2013;" horiz-adv-x="500" 
d="M0 298h500v-56h-500v56z" />
    <glyph glyph-name="macron" unicode="&#xaf;" horiz-adv-x="456" 
d="M86 637v53h282v-53h-282z" />
    <glyph glyph-name="dollar" unicode="$" 
d="M183 -113l16 109c-67 4 -134 13 -134 13l5 57s71 -9 138 -14l40 264c-121 26 -190 54 -190 184c0 129 84 171 220 171c8 0 16 0 24 -1l19 120h40l-19 -122c66 -4 132 -13 132 -13l-3 -56s-75 8 -137 12l-37 -244c136 -29 196 -53 196 -177c0 -143 -76 -198 -213 -198
c-12 0 -26 1 -40 1l-17 -113zM429 189c0 84 -42 99 -141 119l-40 -259h31c98 0 150 40 150 140zM122 501c0 -84 39 -104 135 -125l37 238h-16c-98 0 -156 -25 -156 -113z" />
    <glyph glyph-name="exclam" unicode="!" horiz-adv-x="329" 
d="M133 0v101h66v-101h-66zM135 225l-1 474h63l-1 -474h-61z" />
    <glyph glyph-name="a" unicode="a" horiz-adv-x="520" 
d="M426 349v-261c11 -30 33 -41 66 -45l-4 -52c-51 0 -84 12 -110 40c0 0 -85 -41 -180 -41c-80 0 -138 60 -138 151c0 90 52 138 149 148l157 15v46c0 73 -32 103 -94 103c-78 0 -184 -14 -184 -14l-3 52s111 18 189 18c103 0 152 -50 152 -160zM366 255l-150 -13
c-66 -6 -95 -46 -95 -100c0 -56 34 -100 83 -100c85 0 162 34 162 34v179z" />
    <glyph glyph-name="o" unicode="o" horiz-adv-x="527" 
d="M265 509c145 0 203 -87 203 -252c0 -169 -43 -267 -203 -267c-161 0 -206 89 -206 268c0 167 51 251 206 251zM265 43c121 0 141 81 141 214s-39 199 -141 199c-109 0 -145 -59 -145 -198c0 -142 24 -215 145 -215z" />
    <glyph glyph-name="J" unicode="J" horiz-adv-x="306" 
d="M216 698l1 -591c0 -154 -41 -179 -178 -179v56c93 0 116 20 116 131v583h61z" />
    <glyph glyph-name="t" unicode="t" horiz-adv-x="366" 
d="M322 446h-158v-245c0 -117 12 -157 79 -157c28 0 84 5 84 5l4 -51s-58 -9 -93 -9c-96 0 -134 47 -134 181v276h-73v53h73v158h60v-158h158v-53z" />
    <glyph glyph-name="n" unicode="n" horiz-adv-x="570" 
d="M161 0h-60v500h60v-36s77 45 153 45c135 0 166 -73 166 -249v-260h-60v259c0 136 -16 196 -113 196c-75 0 -146 -42 -146 -42v-413z" />
    <glyph glyph-name="numbersign" unicode="#" 
d="M517 184h-114v-184h-56v184h-167v-184h-56v184h-114v52h114v196h-114v52h114v183h56v-183h167v183h56v-183h114v-52h-114v-196h114v-52zM347 236v196h-167v-196h167z" />
    <glyph glyph-name="W" unicode="W" horiz-adv-x="889" 
d="M45 697h62l132 -641h32l139 631h69l142 -631h33l128 641h62l-142 -697h-126l-132 606l-127 -606h-126z" />
    <glyph glyph-name="at" unicode="@" horiz-adv-x="985" 
d="M930 305v-17c0 -272 -68 -298 -171 -298c-57 0 -92 6 -112 58c-36 -19 -115 -57 -181 -57c-77 0 -174 24 -174 252c0 169 44 266 205 266c50 0 123 -26 123 -26v17h59v-200c0 -245 13 -255 80 -255c68 0 109 14 109 243v18c0 251 -100 359 -364 359
c-262 0 -388 -110 -388 -404c0 -310 120 -406 388 -406c40 0 143 10 143 10l3 -57s-98 -10 -146 -10c-296 0 -449 102 -449 463c0 333 158 460 449 460c302 0 426 -135 426 -416zM468 48c60 0 126 30 162 49c-8 42 -10 101 -10 188v145s-66 23 -115 23
c-125 0 -153 -71 -153 -213c0 -171 64 -192 116 -192z" />
    <glyph glyph-name="grave" unicode="`" horiz-adv-x="545" 
d="M158 743l208 -95l-21 -49l-210 89z" />
    <glyph glyph-name="acute" unicode="&#xb4;" horiz-adv-x="571" 
d="M135 648l208 95l23 -55l-210 -89z" />
    <glyph glyph-name="dieresis" unicode="&#xa8;" horiz-adv-x="760" 
d="M101 630v79h58v-79h-58zM297 630v79h58v-79h-58z" />
    <glyph glyph-name="circumflex" unicode="&#x2c6;" horiz-adv-x="833" 
d="M262 595l123 142h48l125 -142h-68l-80 90l-80 -90h-68z" />
    <glyph glyph-name="tilde" unicode="&#x2dc;" horiz-adv-x="444" 
d="M373 714l14 -47s-45 -48 -81 -48c-43 0 -116 51 -148 51c-23 0 -72 -44 -72 -44l-15 47s50 51 88 51c45 0 116 -50 147 -50c20 0 67 40 67 40z" />
    <glyph glyph-name="ydieresis" unicode="&#xff;" horiz-adv-x="481" 
d="M32 500h61l129 -444h36l130 444h61l-213 -725h-61l68 225h-67zM117 630v79h58v-79h-58zM313 630v79h58v-79h-58z" />
    <glyph glyph-name="scaron" unicode="&#x161;" horiz-adv-x="486" 
d="M406 493l-2 -52s-105 15 -168 15c-61 0 -113 -20 -113 -86c0 -48 23 -68 125 -84c129 -21 175 -46 175 -141c0 -117 -74 -155 -188 -155c-61 0 -168 18 -168 18l4 52s108 -17 159 -17c86 0 132 21 132 99c0 58 -26 71 -132 89c-114 20 -168 45 -168 137
c0 106 86 141 171 141c76 0 173 -16 173 -16zM221 595l-123 142h67l81 -89l80 89h68l-124 -142h-49z" />
    <glyph glyph-name="yacute" unicode="&#xfd;" horiz-adv-x="480" 
d="M26 500h61l129 -444h36l130 444h61l-213 -725h-61l68 225h-67zM147 648l208 95l23 -55l-210 -89z" />
    <glyph glyph-name="zcaron" unicode="&#x17e;" horiz-adv-x="480" 
d="M59 446v54h361l1 -54l-291 -392h291v-54h-360l-2 54l292 392h-292zM206 595l-123 142h67l81 -89l80 89h68l-124 -142h-49z" />
    <glyph glyph-name="M" unicode="M" horiz-adv-x="850" 
d="M100 0v697h113l212 -610l214 610h111v-697h-61v631h-14l-215 -608h-72l-213 608h-14v-631h-61z" />
    <glyph glyph-name="U" unicode="U" horiz-adv-x="643" 
d="M147 204c0 -107 63 -155 171 -155c114 0 178 48 178 155v493h61v-493c0 -146 -82 -213 -239 -213c-150 0 -232 66 -232 213v493h61v-493z" />
    <glyph glyph-name="X" unicode="X" horiz-adv-x="581" 
d="M109 697l182 -306l181 306h70l-209 -351l209 -346h-70l-180 302l-183 -302h-70l212 346l-212 351h70z" />
    <glyph glyph-name="Y" unicode="Y" horiz-adv-x="548" 
d="M305 299v-299h-61v299l-218 398h69l180 -331l177 331h69z" />
    <glyph glyph-name="degree" unicode="&#xb0;" 
d="M104 564c0 83 57 139 140 139s139 -56 139 -139s-56 -139 -139 -139s-140 56 -140 139zM149 564c0 -58 37 -96 95 -96s97 38 97 96s-39 97 -97 97s-95 -39 -95 -97z" />
    <glyph glyph-name="section" unicode="&#xa7;" 
d="M431 639l-3 -51s-107 13 -155 13c-87 0 -129 -30 -129 -98c0 -78 46 -92 145 -109c106 -19 162 -44 162 -143c0 -60 -35 -120 -42 -130c24 -19 37 -46 37 -97c0 -110 -63 -164 -184 -164c-63 0 -173 16 -173 16l6 51s109 -15 164 -15c83 0 129 35 129 109
c0 72 -47 81 -145 97c-112 19 -171 49 -171 147c0 63 49 118 57 124c-29 22 -44 53 -44 112c0 104 69 153 185 153c65 0 161 -15 161 -15zM267 343c-38 7 -72 13 -97 24c-2 -3 -38 -50 -38 -94c0 -66 40 -87 126 -101c44 -7 80 -15 106 -27c2 3 27 51 27 99
c0 71 -44 85 -124 99z" />
    <glyph glyph-name="copyright" unicode="&#xa9;" 
d="M10 434c0 147 108 266 255 266s256 -119 256 -266s-109 -265 -256 -265s-255 118 -255 265zM42 434c0 -129 94 -233 223 -233s224 104 224 233s-95 234 -224 234s-223 -105 -223 -234zM338 321l1 -32s-43 -8 -74 -8c-88 0 -109 61 -109 152s19 154 109 154
c38 0 74 -7 74 -7l-1 -32s-41 7 -73 7c-70 0 -77 -45 -77 -122c0 -76 13 -120 77 -120c28 0 73 8 73 8z" />
    <glyph glyph-name="trademark" unicode="&#x2122;" 
d="M7 590v31h200v-31h-83v-258h-33v258h-84zM242 331v290h50l84 -242l87 242h50v-290h-32v258l-88 -247h-35l-84 247v-258h-32z" />
    <glyph glyph-name="registered" unicode="&#xae;" 
d="M10 434c0 147 108 266 255 266s256 -119 256 -266s-109 -265 -256 -265s-255 118 -255 265zM42 434c0 -129 94 -233 223 -233s224 104 224 233s-95 234 -224 234s-223 -105 -223 -234zM340 276l-66 131h-79v-131h-32v315h91c85 0 115 -24 115 -90c0 -47 -15 -80 -59 -91
l65 -134h-35zM275 439c44 0 62 14 62 62c0 45 -26 58 -80 58h-62v-120h80z" />
    <glyph glyph-name="aacute" unicode="&#xe1;" horiz-adv-x="534" 
d="M426 349v-261c11 -30 33 -41 66 -45l-4 -52c-51 0 -84 12 -110 40c0 0 -85 -41 -180 -41c-80 0 -138 60 -138 151c0 90 52 138 149 148l157 15v46c0 73 -32 103 -94 103c-78 0 -184 -14 -184 -14l-3 52s111 18 189 18c103 0 152 -50 152 -160zM366 255l-150 -13
c-66 -6 -95 -46 -95 -100c0 -56 34 -100 83 -100c85 0 162 34 162 34v179zM159 648l208 95l23 -55l-210 -89z" />
    <glyph glyph-name="agrave" unicode="&#xe0;" horiz-adv-x="534" 
d="M426 349v-261c11 -30 33 -41 66 -45l-4 -52c-51 0 -84 12 -110 40c0 0 -85 -41 -180 -41c-80 0 -138 60 -138 151c0 90 52 138 149 148l157 15v46c0 73 -32 103 -94 103c-78 0 -184 -14 -184 -14l-3 52s111 18 189 18c103 0 152 -50 152 -160zM366 255l-150 -13
c-66 -6 -95 -46 -95 -100c0 -56 34 -100 83 -100c85 0 162 34 162 34v179zM158 743l208 -95l-21 -49l-210 89z" />
    <glyph glyph-name="acircumflex" unicode="&#xe2;" horiz-adv-x="534" 
d="M426 349v-261c11 -30 33 -41 66 -45l-4 -52c-51 0 -84 12 -110 40c0 0 -85 -41 -180 -41c-80 0 -138 60 -138 151c0 90 52 138 149 148l157 15v46c0 73 -32 103 -94 103c-78 0 -184 -14 -184 -14l-3 52s111 18 189 18c103 0 152 -50 152 -160zM366 255l-150 -13
c-66 -6 -95 -46 -95 -100c0 -56 34 -100 83 -100c85 0 162 34 162 34v179zM99 595l123 142h48l125 -142h-68l-80 90l-80 -90h-68z" />
    <glyph glyph-name="adieresis" unicode="&#xe4;" horiz-adv-x="534" 
d="M426 349v-261c11 -30 33 -41 66 -45l-4 -52c-51 0 -84 12 -110 40c0 0 -85 -41 -180 -41c-80 0 -138 60 -138 151c0 90 52 138 149 148l157 15v46c0 73 -32 103 -94 103c-78 0 -184 -14 -184 -14l-3 52s111 18 189 18c103 0 152 -50 152 -160zM366 255l-150 -13
c-66 -6 -95 -46 -95 -100c0 -56 34 -100 83 -100c85 0 162 34 162 34v179zM135 630v79h58v-79h-58zM331 630v79h58v-79h-58z" />
    <glyph glyph-name="atilde" unicode="&#xe3;" horiz-adv-x="534" 
d="M426 349v-261c11 -30 33 -41 66 -45l-4 -52c-51 0 -84 12 -110 40c0 0 -85 -41 -180 -41c-80 0 -138 60 -138 151c0 90 52 138 149 148l157 15v46c0 73 -32 103 -94 103c-78 0 -184 -14 -184 -14l-3 52s111 18 189 18c103 0 152 -50 152 -160zM366 255l-150 -13
c-66 -6 -95 -46 -95 -100c0 -56 34 -100 83 -100c85 0 162 34 162 34v179zM392 714l14 -47s-45 -48 -81 -48c-43 0 -116 51 -148 51c-23 0 -72 -44 -72 -44l-15 47s50 51 88 51c45 0 116 -50 147 -50c20 0 67 40 67 40z" />
    <glyph glyph-name="aring" unicode="&#xe5;" horiz-adv-x="534" 
d="M426 349v-261c11 -30 33 -41 66 -45l-4 -52c-51 0 -84 12 -110 40c0 0 -85 -41 -180 -41c-80 0 -138 60 -138 151c0 90 52 138 149 148l157 15v46c0 73 -32 103 -94 103c-78 0 -184 -14 -184 -14l-3 52s111 18 189 18c103 0 152 -50 152 -160zM366 255l-150 -13
c-66 -6 -95 -46 -95 -100c0 -56 34 -100 83 -100c85 0 162 34 162 34v179zM155 667c0 56 44 100 102 100c56 0 99 -44 99 -100c0 -57 -43 -101 -99 -101c-58 0 -102 44 -102 101zM203 667c0 -31 23 -56 54 -56c30 0 53 25 53 56c0 30 -23 55 -53 55c-31 0 -54 -25 -54 -55z
" />
    <glyph glyph-name="eacute" unicode="&#xe9;" horiz-adv-x="507" 
d="M254 44c71 0 178 9 178 9l2 -49s-103 -14 -183 -14c-144 0 -193 101 -193 258c0 182 80 261 202 261s192 -72 192 -236l-2 -48h-331c1 -101 31 -181 135 -181zM119 274h273c0 132 -45 183 -132 183c-83 0 -141 -53 -141 -183zM143 648l208 95l23 -55l-210 -89z" />
    <glyph glyph-name="egrave" unicode="&#xe8;" horiz-adv-x="507" 
d="M254 44c71 0 178 9 178 9l2 -49s-103 -14 -183 -14c-144 0 -193 101 -193 258c0 182 80 261 202 261s192 -72 192 -236l-2 -48h-331c1 -101 31 -181 135 -181zM119 274h273c0 132 -45 183 -132 183c-83 0 -141 -53 -141 -183zM156 743l208 -95l-21 -49l-210 89z" />
    <glyph glyph-name="ecircumflex" unicode="&#xea;" horiz-adv-x="507" 
d="M254 44c71 0 178 9 178 9l2 -49s-103 -14 -183 -14c-144 0 -193 101 -193 258c0 182 80 261 202 261s192 -72 192 -236l-2 -48h-331c1 -101 31 -181 135 -181zM119 274h273c0 132 -45 183 -132 183c-83 0 -141 -53 -141 -183zM110 595l123 142h48l125 -142h-68l-80 90
l-80 -90h-68z" />
    <glyph glyph-name="edieresis" unicode="&#xeb;" horiz-adv-x="507" 
d="M254 44c71 0 178 9 178 9l2 -49s-103 -14 -183 -14c-144 0 -193 101 -193 258c0 182 80 261 202 261s192 -72 192 -236l-2 -48h-331c1 -101 31 -181 135 -181zM119 274h273c0 132 -45 183 -132 183c-83 0 -141 -53 -141 -183zM140 630v79h58v-79h-58zM336 630v79h58v-79
h-58z" />
    <glyph glyph-name="idieresis" unicode="&#xef;" horiz-adv-x="263" 
d="M17 630v79h58v-79h-58zM213 630v79h58v-79h-58zM101 0v500h60v-500h-60z" />
    <glyph glyph-name="ntilde" unicode="&#xf1;" horiz-adv-x="574" 
d="M163 0h-60v500h60v-36s77 45 153 45c135 0 166 -73 166 -249v-260h-60v259c0 136 -16 196 -113 196c-75 0 -146 -42 -146 -42v-413zM440 714l14 -47s-45 -48 -81 -48c-43 0 -116 51 -148 51c-23 0 -72 -44 -72 -44l-15 47s50 51 88 51c45 0 116 -50 147 -50
c20 0 67 40 67 40z" />
    <glyph glyph-name="oacute" unicode="&#xf3;" horiz-adv-x="534" 
d="M265 509c145 0 203 -87 203 -252c0 -169 -43 -267 -203 -267c-161 0 -206 89 -206 268c0 167 51 251 206 251zM265 43c121 0 141 81 141 214s-39 199 -141 199c-109 0 -145 -59 -145 -198c0 -142 24 -215 145 -215zM158 648l208 95l23 -55l-210 -89z" />
    <glyph glyph-name="ograve" unicode="&#xf2;" horiz-adv-x="534" 
d="M265 509c145 0 203 -87 203 -252c0 -169 -43 -267 -203 -267c-161 0 -206 89 -206 268c0 167 51 251 206 251zM265 43c121 0 141 81 141 214s-39 199 -141 199c-109 0 -145 -59 -145 -198c0 -142 24 -215 145 -215zM141 743l208 -95l-21 -49l-210 89z" />
    <glyph glyph-name="ocircumflex" unicode="&#xf4;" horiz-adv-x="534" 
d="M265 509c145 0 203 -87 203 -252c0 -169 -43 -267 -203 -267c-161 0 -206 89 -206 268c0 167 51 251 206 251zM265 43c121 0 141 81 141 214s-39 199 -141 199c-109 0 -145 -59 -145 -198c0 -142 24 -215 145 -215zM109 595l123 142h48l125 -142h-68l-80 90l-80 -90h-68z
" />
    <glyph glyph-name="odieresis" unicode="&#xf6;" horiz-adv-x="534" 
d="M265 509c145 0 203 -87 203 -252c0 -169 -43 -267 -203 -267c-161 0 -206 89 -206 268c0 167 51 251 206 251zM265 43c121 0 141 81 141 214s-39 199 -141 199c-109 0 -145 -59 -145 -198c0 -142 24 -215 145 -215zM144 630v79h58v-79h-58zM340 630v79h58v-79h-58z" />
    <glyph glyph-name="otilde" unicode="&#xf5;" horiz-adv-x="534" 
d="M265 509c145 0 203 -87 203 -252c0 -169 -43 -267 -203 -267c-161 0 -206 89 -206 268c0 167 51 251 206 251zM265 43c121 0 141 81 141 214s-39 199 -141 199c-109 0 -145 -59 -145 -198c0 -142 24 -215 145 -215zM399 714l14 -47s-45 -48 -81 -48
c-43 0 -116 51 -148 51c-23 0 -72 -44 -72 -44l-15 47s50 51 88 51c45 0 116 -50 147 -50c20 0 67 40 67 40z" />
    <glyph glyph-name="uacute" unicode="&#xfa;" horiz-adv-x="558" 
d="M404 500h60v-500h-60v35s-76 -45 -145 -45c-133 0 -166 69 -166 249v261h60v-259c0 -143 17 -197 113 -197c68 0 138 42 138 42v414zM171 648l208 95l23 -55l-210 -89z" />
    <glyph glyph-name="ugrave" unicode="&#xf9;" horiz-adv-x="558" 
d="M404 500h60v-500h-60v35s-76 -45 -145 -45c-133 0 -166 69 -166 249v261h60v-259c0 -143 17 -197 113 -197c68 0 138 42 138 42v414zM154 743l208 -95l-21 -49l-210 89z" />
    <glyph glyph-name="ucircumflex" unicode="&#xfb;" horiz-adv-x="558" 
d="M404 500h60v-500h-60v35s-76 -45 -145 -45c-133 0 -166 69 -166 249v261h60v-259c0 -143 17 -197 113 -197c68 0 138 42 138 42v414zM122 595l123 142h48l125 -142h-68l-80 90l-80 -90h-68z" />
    <glyph glyph-name="udieresis" unicode="&#xfc;" horiz-adv-x="558" 
d="M404 500h60v-500h-60v35s-76 -45 -145 -45c-133 0 -166 69 -166 249v261h60v-259c0 -143 17 -197 113 -197c68 0 138 42 138 42v414zM157 630v79h58v-79h-58zM353 630v79h58v-79h-58z" />
    <glyph glyph-name="multiply" unicode="&#xd7;" 
d="M128 468l142 -145l148 145l42 -42l-145 -148l145 -142l-45 -45l-145 145l-145 -146l-43 43l146 145l-145 145z" />
    <glyph glyph-name="iacute" unicode="&#xed;" horiz-adv-x="261" 
d="M42 648l208 95l23 -55l-210 -89zM101 0v500h60v-500h-60z" />
    <glyph glyph-name="igrave" unicode="&#xec;" horiz-adv-x="263" 
d="M101 0v500h60v-500h-60zM3 743l208 -95l-21 -49l-210 89z" />
    <glyph glyph-name="icircumflex" unicode="&#xee;" horiz-adv-x="263" 
d="M101 0v500h60v-500h-60zM-18 595l123 142h48l125 -142h-68l-80 90l-80 -90h-68z" />
    <glyph glyph-name="Atilde" unicode="&#xc3;" horiz-adv-x="604" 
d="M36 0l200 697h135l198 -697h-62l-59 191h-294l-56 -191h-62zM281 642l-112 -394h266l-112 394h-42zM463 913l16 -46s-53 -57 -89 -57c-46 0 -130 59 -162 59c-23 0 -80 -51 -80 -51l-15 47s57 58 95 58c47 0 130 -58 161 -58c20 0 74 48 74 48z" />
    <glyph glyph-name="Agrave" unicode="&#xc0;" horiz-adv-x="604" 
d="M36 0l200 697h135l198 -697h-62l-59 191h-294l-56 -191h-62zM281 642l-112 -394h266l-112 394h-42zM198 930l208 -95l-21 -48l-210 88z" />
    <glyph glyph-name="Otilde" unicode="&#xd5;" horiz-adv-x="653" 
d="M326 47c156 0 203 86 203 298c0 203 -51 305 -203 305c-153 0 -202 -101 -202 -305c0 -205 47 -298 202 -298zM326 -10c-198 0 -266 116 -266 355c0 237 70 362 266 362c197 0 267 -124 267 -362c0 -247 -69 -355 -267 -355zM488 911l16 -46s-53 -57 -89 -57
c-46 0 -130 59 -162 59c-23 0 -80 -51 -80 -51l-15 47s57 58 95 58c47 0 130 -58 161 -58c20 0 74 48 74 48z" />
    <glyph glyph-name="Acircumflex" unicode="&#xc2;" horiz-adv-x="604" 
d="M36 0l200 697h135l198 -697h-62l-59 191h-294l-56 -191h-62zM281 642l-112 -394h266l-112 394h-42zM141 799l134 131h53l133 -131h-71l-88 83l-88 -83h-73z" />
    <glyph glyph-name="Ecircumflex" unicode="&#xca;" horiz-adv-x="567" 
d="M100 0v697h406v-57h-345v-257h285v-56h-285v-270h345v-57h-406zM144 800l134 131h53l133 -131h-71l-88 83l-88 -83h-73z" />
    <glyph glyph-name="Aacute" unicode="&#xc1;" horiz-adv-x="604" 
d="M36 0l200 697h135l198 -697h-62l-59 191h-294l-56 -191h-62zM281 642l-112 -394h266l-112 394h-42zM190 838l208 95l23 -55l-210 -89z" />
    <glyph glyph-name="Edieresis" unicode="&#xcb;" horiz-adv-x="567" 
d="M100 0v697h406v-57h-345v-257h285v-56h-285v-270h345v-57h-406zM183 827v79h58v-79h-58zM385 827v79h58v-79h-58z" />
    <glyph glyph-name="Egrave" unicode="&#xc8;" horiz-adv-x="567" 
d="M100 0v697h406v-57h-345v-257h285v-56h-285v-270h345v-57h-406zM203 930l208 -95l-21 -48l-210 88z" />
    <glyph glyph-name="Ocircumflex" unicode="&#xd4;" horiz-adv-x="653" 
d="M326 47c156 0 203 86 203 298c0 203 -51 305 -203 305c-153 0 -202 -101 -202 -305c0 -205 47 -298 202 -298zM326 -10c-198 0 -266 116 -266 355c0 237 70 362 266 362c197 0 267 -124 267 -362c0 -247 -69 -355 -267 -355zM168 803l134 131h53l133 -131h-71l-88 83
l-88 -83h-73z" />
    <glyph glyph-name="Oacute" unicode="&#xd3;" horiz-adv-x="653" 
d="M326 47c156 0 203 86 203 298c0 203 -51 305 -203 305c-153 0 -202 -101 -202 -305c0 -205 47 -298 202 -298zM326 -10c-198 0 -266 116 -266 355c0 237 70 362 266 362c197 0 267 -124 267 -362c0 -247 -69 -355 -267 -355zM207 838l208 95l23 -55l-210 -89z" />
    <glyph glyph-name="Igrave" unicode="&#xcc;" horiz-adv-x="239" 
d="M89 0v697h61v-697h-61zM17 930l208 -95l-21 -48l-210 88z" />
    <glyph glyph-name="Idieresis" unicode="&#xcf;" horiz-adv-x="239" 
d="M89 0v697h61v-697h-61zM-3 830v79h58v-79h-58zM199 830v79h58v-79h-58z" />
    <glyph glyph-name="Icircumflex" unicode="&#xce;" horiz-adv-x="239" 
d="M89 0v697h61v-697h-61zM-41 800l134 131h53l133 -131h-71l-88 83l-88 -83h-73z" />
    <glyph glyph-name="Iacute" unicode="&#xcd;" horiz-adv-x="239" 
d="M89 0v697h61v-697h-61zM11 838l208 95l23 -55l-210 -89z" />
    <glyph glyph-name="Ograve" unicode="&#xd2;" horiz-adv-x="653" 
d="M326 47c156 0 203 86 203 298c0 203 -51 305 -203 305c-153 0 -202 -101 -202 -305c0 -205 47 -298 202 -298zM326 -10c-198 0 -266 116 -266 355c0 237 70 362 266 362c197 0 267 -124 267 -362c0 -247 -69 -355 -267 -355zM233 930l208 -95l-21 -48l-210 88z" />
    <glyph glyph-name="Uacute" unicode="&#xda;" horiz-adv-x="643" 
d="M147 204c0 -107 63 -155 171 -155c114 0 178 48 178 155v493h61v-493c0 -146 -82 -213 -239 -213c-150 0 -232 66 -232 213v493h61v-493zM203 838l208 95l23 -55l-210 -89z" />
    <glyph glyph-name="Ucircumflex" unicode="&#xdb;" horiz-adv-x="643" 
d="M147 204c0 -107 63 -155 171 -155c114 0 178 48 178 155v493h61v-493c0 -146 -82 -213 -239 -213c-150 0 -232 66 -232 213v493h61v-493zM162 799l134 131h53l133 -131h-71l-88 83l-88 -83h-73z" />
    <glyph glyph-name="Ugrave" unicode="&#xd9;" horiz-adv-x="643" 
d="M147 204c0 -107 63 -155 171 -155c114 0 178 48 178 155v493h61v-493c0 -146 -82 -213 -239 -213c-150 0 -232 66 -232 213v493h61v-493zM226 930l208 -95l-21 -48l-210 88z" />
    <glyph glyph-name="cedilla" unicode="&#xb8;" horiz-adv-x="833" 
d="M561 -127c0 -57 -36 -82 -89 -82c-44 0 -84 6 -84 6l2 41s41 -4 71 -4c28 0 45 11 45 41c0 28 -17 37 -45 37h-47v89h38v-53c74 0 109 -14 109 -75z" />
    <glyph glyph-name="Udieresis" unicode="&#xdc;" horiz-adv-x="643" 
d="M147 204c0 -107 63 -155 171 -155c114 0 178 48 178 155v493h61v-493c0 -146 -82 -213 -239 -213c-150 0 -232 66 -232 213v493h61v-493zM199 830v79h58v-79h-58zM401 830v79h58v-79h-58z" />
    <glyph glyph-name="Odieresis" unicode="&#xd6;" horiz-adv-x="653" 
d="M326 47c156 0 203 86 203 298c0 203 -51 305 -203 305c-153 0 -202 -101 -202 -305c0 -205 47 -298 202 -298zM326 -10c-198 0 -266 116 -266 355c0 237 70 362 266 362c197 0 267 -124 267 -362c0 -247 -69 -355 -267 -355zM204 827v79h58v-79h-58zM406 827v79h58v-79
h-58z" />
    <glyph glyph-name="Ntilde" unicode="&#xd1;" horiz-adv-x="690" 
d="M100 0v697h120l286 -636h23v636h62v-697h-119l-289 636h-22v-636h-61zM507 911l16 -46s-53 -57 -89 -57c-46 0 -130 59 -162 59c-23 0 -80 -51 -80 -51l-15 47s57 58 95 58c47 0 130 -58 161 -58c20 0 74 48 74 48z" />
    <glyph glyph-name="Eacute" unicode="&#xc9;" horiz-adv-x="567" 
d="M100 0v697h406v-57h-345v-257h285v-56h-285v-270h345v-57h-406zM205 838l208 95l23 -55l-210 -89z" />
    <glyph glyph-name="Ccedilla" unicode="&#xc7;" horiz-adv-x="537" 
d="M426 -127c0 -57 -36 -82 -89 -82c-44 0 -84 6 -84 6l2 41s41 -4 71 -4c28 0 45 11 45 41c0 28 -17 37 -45 37h-47v79c-182 11 -221 145 -221 355c0 221 42 361 247 361c90 0 184 -20 184 -20l-4 -56s-103 18 -175 18c-165 0 -188 -116 -188 -303c0 -185 24 -297 189 -297
c63 0 174 17 174 17l3 -56s-96 -18 -171 -20v-42c74 0 109 -14 109 -75z" />
    <glyph glyph-name="Aring" unicode="&#xc5;" horiz-adv-x="604" 
d="M413 750c0 -34 -13 -60 -35 -78l191 -672h-62l-59 191h-294l-56 -191h-62l192 671c-23 17 -36 44 -36 79c0 63 46 100 110 100s111 -37 111 -100zM281 642l-112 -394h266l-112 394h-42zM243 750c0 -29 15 -48 41 -53h36c27 5 42 24 42 53c0 35 -22 54 -60 54
c-37 0 -59 -19 -59 -54z" />
    <glyph glyph-name="Adieresis" unicode="&#xc4;" horiz-adv-x="604" 
d="M36 0l200 697h135l198 -697h-62l-59 191h-294l-56 -191h-62zM281 642l-112 -394h266l-112 394h-42zM172 827v79h58v-79h-58zM374 827v79h58v-79h-58z" />
    <glyph glyph-name="ccedilla" unicode="&#xe7;" horiz-adv-x="437" 
d="M374 -127c0 -57 -36 -82 -89 -82c-44 0 -84 6 -84 6l2 41s41 -4 71 -4c28 0 45 11 45 41c0 28 -17 37 -45 37h-47v80c-128 13 -165 96 -165 267c0 173 59 250 206 250c48 0 121 -11 121 -11l-3 -53s-71 10 -109 10c-116 0 -153 -61 -153 -196c0 -145 27 -214 154 -214
c38 0 110 8 110 8l2 -52s-76 -11 -123 -11h-2v-42c74 0 109 -14 109 -75z" />
    <glyph glyph-name="Scaron" unicode="&#x160;" horiz-adv-x="534" 
d="M470 690l-4 -55s-134 16 -192 16c-101 0 -156 -43 -156 -123c0 -95 50 -119 172 -144c134 -29 196 -66 196 -182c0 -146 -69 -210 -215 -210c-80 0 -209 17 -209 17l5 56s132 -16 201 -16c103 0 156 47 156 149c0 80 -44 108 -160 131c-141 30 -208 67 -208 198
c0 122 79 182 216 182c82 0 198 -19 198 -19zM438 933l-133 -131h-53l-134 131h72l89 -84l87 84h72z" />
    <glyph glyph-name="eth" unicode="&#xf0;" 
d="M157 534l-28 39l92 64c-35 15 -75 29 -121 41l15 51c60 -15 113 -32 159 -54l100 70l28 -39l-81 -57c110 -66 168 -162 168 -296c0 -264 -65 -362 -225 -362c-138 0 -220 81 -220 228c0 126 81 209 208 209c76 0 174 -39 174 -39c-4 87 -48 164 -156 224zM255 373
c-93 0 -148 -65 -148 -154c0 -109 54 -172 157 -172c116 0 161 70 162 287c0 0 -99 39 -171 39z" />
    <glyph glyph-name="Eth" unicode="&#xd0;" horiz-adv-x="646" 
d="M23 320v58h77v319h243c188 0 246 -156 246 -338c0 -183 -56 -359 -246 -359h-243v320h-77zM525 359c0 140 -39 281 -182 281h-182v-262h160v-58h-160v-263h182c143 0 182 162 182 302z" />
    <glyph glyph-name="Yacute" unicode="&#xdd;" horiz-adv-x="548" 
d="M305 299v-299h-61v299l-218 398h69l180 -331l177 331h69zM166 838l208 95l23 -55l-210 -89z" />
    <glyph glyph-name="Thorn" unicode="&#xde;" horiz-adv-x="609" 
d="M343 185c108 0 153 75 153 177c0 101 -45 161 -153 161h-182v-338h182zM343 126h-182v-126h-61v697h61v-116h182c149 0 216 -78 216 -219c0 -142 -67 -236 -216 -236z" />
    <glyph glyph-name="thorn" unicode="&#xfe;" horiz-adv-x="547" 
d="M271 43c114 0 154 70 154 216c0 124 -42 196 -122 196c-74 0 -142 -40 -142 -40v-361s58 -11 110 -11zM307 509c126 0 179 -93 179 -250c0 -184 -61 -269 -213 -269c-52 0 -112 8 -112 8v-223h-60v947h60v-255s69 42 146 42z" />
    <glyph glyph-name="Zcaron" unicode="&#x17d;" horiz-adv-x="570" 
d="M65 640v57h440v-84l-369 -536v-20h369v-58h-440v84l369 535v22h-369zM452 928l-133 -131h-53l-134 131h72l89 -84l87 84h72z" />
    <glyph glyph-name="Ydieresis" unicode="&#x178;" horiz-adv-x="548" 
d="M305 299v-299h-61v299l-218 398h69l180 -331l177 331h69zM150 826v79h58v-79h-58zM352 826v79h58v-79h-58z" />
    <glyph glyph-name="oslash" unicode="&#xf8;" horiz-adv-x="527" 
d="M265 509c29 0 54 -4 76 -11l-3 -8l-5 -14l-12 -29c-16 6 -35 9 -56 9c-109 0 -145 -59 -145 -198c0 -91 10 -154 49 -187l-13 -32l-8 -13l-4 -9c-64 38 -85 119 -85 241c0 167 51 251 206 251zM265 43c121 0 141 81 141 214c0 80 -15 136 -48 168l15 36l7 13l2 6
c60 -38 86 -114 86 -223c0 -169 -43 -267 -203 -267c-31 0 -57 3 -79 10l5 12l4 13l10 26c17 -6 36 -8 60 -8zM169 71l152 376c14 -5 26 -13 37 -22l-153 -374c-14 4 -26 11 -36 20zM140 -113l-43 15l47 115c12 -8 26 -13 42 -17zM341 498l44 107l43 -15l-46 -110
c-12 8 -26 14 -41 18z" />
    <glyph glyph-name="brokenbar" unicode="&#xa6;" 
d="M228 750h61v-414h-61v414zM228 175h61v-425h-61v425z" />
    <glyph glyph-name="plusminus" unicode="&#xb1;" 
d="M49 285v60h184v151h64v-151h184v-60h-184v-138h-64v138h-184zM49 109h432v-60h-432v60z" />
    <glyph glyph-name="comma.001" horiz-adv-x="170" 
d="M-6 -123l42 210h40l-51 -210h-31z" />
    <glyph glyph-name="bullet" unicode="&#x2022;" 
d="M141 107v288h248v-288h-248z" />
    <glyph glyph-name="ordfeminine" unicode="&#xaa;" 
d="M347 570v-127c4 -15 12 -22 33 -25l-3 -39c-25 1 -44 6 -60 21c0 0 -61 -21 -113 -21c-48 0 -78 32 -78 86c0 51 26 77 82 81l94 6v19c0 34 -12 48 -45 48c-34 0 -111 -7 -111 -7l-2 41s80 9 117 9c57 0 86 -29 86 -92zM302 514l-88 -5c-30 -2 -42 -15 -42 -45
s14 -43 37 -43c39 0 93 15 93 15v78z" />
    <glyph glyph-name="ordmasculine" unicode="&#xba;" 
d="M251 662c79 0 121 -41 121 -140s-42 -143 -121 -143c-78 0 -121 44 -121 143s43 140 121 140zM251 423c53 0 73 27 73 99c0 71 -21 96 -73 96c-51 0 -73 -25 -73 -96c0 -72 22 -99 73 -99z" />
    <glyph glyph-name="guilsinglleft" unicode="&#x2039;" horiz-adv-x="356" 
d="M231 350l-129 -99l129 -109v-64l-181 146v51l181 138v-63z" />
    <glyph glyph-name="I" unicode="I" horiz-adv-x="239" 
d="M89 0v697h61v-697h-61z" />
    <glyph glyph-name="O" unicode="O" horiz-adv-x="653" 
d="M326 47c156 0 203 86 203 298c0 203 -51 305 -203 305c-153 0 -202 -101 -202 -305c0 -205 47 -298 202 -298zM326 -10c-198 0 -266 116 -266 355c0 237 70 362 266 362c197 0 267 -124 267 -362c0 -247 -69 -355 -267 -355z" />
    <glyph glyph-name="guillemotleft" unicode="&#xab;" horiz-adv-x="511" 
d="M231 350l-129 -99l129 -109v-64l-181 146v51l181 138v-63zM451 350l-128 -99l128 -109v-64l-181 146v51l181 138v-63z" />
    <glyph glyph-name="guillemotright" unicode="&#xbb;" horiz-adv-x="511" 
d="M409 254l-129 98v63l181 -138v-51l-181 -146v65zM188 254l-128 98v63l181 -138v-51l-181 -146v65z" />
    <glyph glyph-name="quotedblleft" unicode="&#x201c;" horiz-adv-x="372" 
d="M158 697l-42 -212h-63l51 212h54zM316 697l-42 -212h-63l51 212h54z" />
    <glyph glyph-name="asciitilde" unicode="~" 
d="M457 374l7 -59s-52 -52 -104 -52c-59 0 -142 52 -188 52c-40 0 -99 -50 -99 -50l-8 58s56 53 109 53c60 0 142 -51 187 -51c38 0 96 49 96 49z" />
    <glyph glyph-name="emdash" unicode="&#x2014;" horiz-adv-x="1000" 
d="M0 298h1000v-56h-1000v56z" />
    <glyph glyph-name="L" unicode="L" horiz-adv-x="519" 
d="M469 0h-369v697h61v-639h308v-58z" />
    <glyph glyph-name="B" unicode="B" horiz-adv-x="621" 
d="M100 697h236c129 0 204 -59 204 -171c0 -89 -35 -143 -91 -167c62 -20 115 -67 115 -163c0 -142 -87 -196 -213 -196h-251v697zM343 327h-182v-271h188c89 0 152 42 152 142c0 113 -108 129 -158 129zM334 641h-173v-259h182c92 0 134 55 134 138c0 78 -48 121 -143 121z
" />
    <glyph glyph-name="D" unicode="D" horiz-adv-x="646" 
d="M343 0h-243v697h243c188 0 246 -156 246 -338c0 -183 -56 -359 -246 -359zM525 359c0 140 -39 281 -182 281h-182v-583h182c143 0 182 162 182 302z" />
    <glyph glyph-name="P" unicode="P" horiz-adv-x="609" 
d="M343 242h-182v-242h-61v697h243c147 0 216 -77 216 -218s-69 -237 -216 -237zM161 299h182c108 0 153 78 153 180s-45 161 -153 161h-182v-341z" />
    <glyph glyph-name="b" unicode="b" horiz-adv-x="540" 
d="M308 509c134 0 177 -100 177 -250c0 -166 -51 -269 -232 -269c-63 0 -152 10 -152 10v722h60v-246s69 33 147 33zM252 43c147 0 171 96 171 215c0 112 -24 197 -119 197c-78 0 -143 -30 -143 -30v-377s61 -5 91 -5z" />
    <glyph glyph-name="v" unicode="v" horiz-adv-x="481" 
d="M33 500h63l126 -449h36l129 449h61l-144 -500h-128z" />
    <glyph glyph-name="x" unicode="x" horiz-adv-x="459" 
d="M35 500h66l128 -206l129 206h65l-158 -250l158 -250h-67l-127 206l-127 -206h-66l157 250z" />
    <glyph glyph-name="six" unicode="6" 
d="M463 651l-6 -55s-90 17 -168 17c-113 0 -184 -70 -185 -247c0 0 99 44 172 44c134 0 216 -63 216 -199c0 -139 -86 -221 -225 -221c-151 0 -227 126 -227 344c0 254 105 336 249 336c74 0 174 -19 174 -19zM272 354c-77 0 -169 -41 -169 -41c3 -152 49 -266 164 -266
c100 0 161 60 161 164c0 100 -63 143 -156 143z" />
    <glyph glyph-name="nine" unicode="9" 
d="M68 11l8 54s90 -18 167 -18c120 0 187 76 189 243c0 0 -109 -38 -180 -38c-127 0 -210 66 -210 203c0 136 96 215 222 215c154 0 231 -121 231 -344c0 -254 -100 -336 -252 -336c-74 0 -175 21 -175 21zM257 308c67 0 176 36 176 36c-2 165 -53 270 -169 270
c-92 0 -158 -59 -158 -159s57 -147 151 -147z" />
    <glyph glyph-name="yen" unicode="&#xa5;" horiz-adv-x="540" 
d="M47 318v54h153l-183 288h69l185 -292l182 292h70l-181 -288h150v-54h-180l-10 -17v-79h191v-53h-191v-169h-62v169h-192v53h192v79l-10 17h-183z" />
    <glyph glyph-name="less" unicode="&#x3c;" 
d="M421 475l-275 -175l275 -183v-66l-332 216v62l332 210v-64z" />
    <glyph glyph-name="greater" unicode="&#x3e;" 
d="M382 300l-275 175v64l332 -210v-62l-332 -216v66z" />
    <glyph glyph-name="bracketleft" unicode="[" horiz-adv-x="300" 
d="M243 749v-57h-139v-758h139v-57h-200v872h200z" />
    <glyph glyph-name="backslash" unicode="\" horiz-adv-x="529" 
d="M444 10l-61 -10l-303 691l62 10z" />
    <glyph glyph-name="bracketright" unicode="]" horiz-adv-x="300" 
d="M44 692v57h200v-872h-200v57h139v758h-139z" />
    <glyph glyph-name="bar" unicode="|" 
d="M229 -250v1000h61v-1000h-61z" />
    <glyph glyph-name="AE" unicode="&#xc6;" horiz-adv-x="838" 
d="M370 0v191h-229l-57 -191h-62l200 697h554v-57h-345v-257h285v-56h-285v-270h345v-57h-406zM267 640l-112 -392h215v392h-103z" />
    <glyph glyph-name="mu" unicode="&#xb5;" 
d="M90 -228v728h60v-263c0 -138 16 -193 114 -193c67 0 137 41 137 41v415h60v-500h-60v35s-76 -45 -142 -45c-90 0 -108 47 -109 51v-269h-60z" />
    <glyph glyph-name="mu" unicode="&#x3bc;" 
d="M90 -228v728h60v-263c0 -138 16 -193 114 -193c67 0 137 41 137 41v415h60v-500h-60v35s-76 -45 -142 -45c-90 0 -108 47 -109 51v-269h-60z" />
    <glyph glyph-name="ae" unicode="&#xe6;" horiz-adv-x="828" 
d="M569 44c70 0 181 9 181 9l2 -49s-107 -14 -187 -14c-69 0 -117 20 -147 56l-34 -15c-9 -4 -90 -41 -193 -41c-83 0 -134 52 -134 151c0 110 56 135 179 150l135 13v46c0 73 -34 103 -95 103c-74 0 -189 -10 -189 -10l-3 53s115 13 193 13c72 0 118 -26 137 -82
c35 60 93 82 162 82c128 0 194 -72 194 -236l-2 -48h-337c0 -116 34 -181 138 -181zM198 42c80 0 181 37 194 42c-18 43 -23 101 -23 170l-159 -14c-63 -6 -92 -36 -92 -98c0 -65 32 -100 80 -100zM430 274h280c0 132 -42 183 -135 183c-91 0 -144 -54 -145 -183z" />
    <glyph glyph-name="florin" unicode="&#x192;" 
d="M283 -66c0 -136 -52 -179 -141 -179c-35 0 -67 7 -67 7l1 49s38 -3 66 -3c50 0 82 31 82 126v424h-113v55h113v61c0 160 37 208 131 208c43 0 109 -5 118 -7l-1 -50s-77 2 -108 2c-52 0 -81 -39 -81 -126v-88h172v-55h-172v-424z" />
    <glyph glyph-name="OE" unicode="&#x152;" horiz-adv-x="929" 
d="M868 -1h-401c-49 -4 -112 -9 -149 -9c-202 0 -262 125 -262 355c0 235 66 362 262 362c37 0 103 -4 147 -10h403v-57h-342v-257h282v-56h-282v-270h342v-58zM323 48c22 0 100 5 142 8v583c-42 3 -117 10 -142 10c-158 0 -203 -103 -203 -303c0 -197 39 -298 203 -298z
" />
    <glyph glyph-name="oe" unicode="&#x153;" horiz-adv-x="876" 
d="M617 44c70 0 181 9 181 9l2 -49s-107 -14 -187 -14c-87 0 -138 33 -166 93c-27 -64 -78 -93 -175 -93c-168 0 -210 81 -210 268c0 175 55 251 210 251c90 0 148 -31 177 -103c34 76 97 103 174 103c129 0 195 -72 195 -236l-2 -48h-337c0 -116 34 -181 138 -181zM272 43
c129 0 145 74 145 214c0 143 -43 199 -145 199c-115 0 -148 -51 -148 -198c0 -149 19 -215 148 -215zM478 274h280c0 133 -40 182 -134 182c-91 0 -145 -53 -146 -182z" />
    <glyph glyph-name="daggerdbl" unicode="&#x2021;" 
d="M235 -77v194h-174v57h174v265h-174v59h174v194h59v-194h174v-59h-174v-265h174v-57h-174v-194h-59z" />
    <glyph glyph-name="four" unicode="4" 
d="M350 -3v129h-318v50l204 484h67l-200 -477h247v222h62v-222h84v-57h-84v-129h-62z" />
    <glyph glyph-name="quotedbl" unicode="&#x22;" horiz-adv-x="299" 
d="M258 462h-56l-2 235h60zM103 462h-57l-1 235h60z" />
    <glyph glyph-name="quotesingle" unicode="'" horiz-adv-x="100" 
d="M19 477l-1 220h60l-2 -220h-57z" />
    <glyph glyph-name="parenleft" unicode="(" horiz-adv-x="260" 
d="M140 750h63s-95 -260 -95 -449c0 -186 95 -426 95 -426h-63s-97 226 -97 426s97 449 97 449z" />
    <glyph glyph-name="parenright" unicode=")" horiz-adv-x="260" 
d="M104 -120h-63s95 260 95 449c0 186 -95 426 -95 426h63s97 -226 97 -426s-97 -449 -97 -449z" />
    <glyph glyph-name="comma" unicode="," horiz-adv-x="170" 
d="M34 -123l44 222h66l-53 -222h-57z" />
    <glyph glyph-name="hyphen" unicode="-" horiz-adv-x="440" 
d="M70 242v57h300v-57h-300z" />
    <glyph glyph-name="period" unicode="." horiz-adv-x="248" 
d="M85 0v101h66v-101h-66z" />
    <glyph glyph-name="slash" unicode="/" 
d="M96 14l278 692l57 -21l-279 -692z" />
    <glyph glyph-name="colon" unicode=":" horiz-adv-x="163" 
d="M66 330v102h66v-102h-66zM66 0v101h66v-101h-66z" />
    <glyph glyph-name="semicolon" unicode=";" horiz-adv-x="188" 
d="M29 -121l46 225h67l-59 -225h-54zM70 330v102h66v-102h-66z" />
    <glyph glyph-name="equal" unicode="=" 
d="M60 340v60h410v-60h-410zM60 162v59h410v-59h-410z" />
    <glyph glyph-name="question" unicode="?" horiz-adv-x="386" 
d="M375 542c0 -135 -181 -210 -181 -309v-38h-61s-2 41 -2 46c0 117 180 198 180 297c0 84 -38 112 -137 112c-48 0 -150 -23 -150 -23l-8 55s106 28 162 28c132 0 197 -43 197 -168zM130 1v99h66v-99h-66z" />
    <glyph glyph-name="underscore" unicode="_" 
d="M27 -84h476v-56h-476v56z" />
    <glyph glyph-name="braceleft" unicode="{" horiz-adv-x="298" 
d="M170 170c0 -37 -7 -79 -7 -117c0 -76 24 -118 125 -123l-2 -57c-133 5 -186 57 -186 176c0 39 7 98 7 123c0 59 -25 91 -101 113v52c77 19 101 52 101 112c0 28 -7 91 -7 128c0 121 53 171 186 176l2 -57c-101 -5 -125 -44 -125 -122c0 -33 7 -92 7 -121
c0 -86 -27 -117 -100 -141c73 -24 100 -59 100 -142z" />
    <glyph glyph-name="braceright" unicode="}" horiz-adv-x="298" 
d="M120 453c0 37 7 79 7 117c0 76 -24 118 -125 123l2 57c133 -5 186 -57 186 -176c0 -39 -7 -98 -7 -123c0 -59 25 -91 101 -113v-52c-77 -19 -101 -52 -101 -112c0 -28 7 -91 7 -128c0 -121 -53 -171 -186 -176l-2 57c101 5 125 44 125 122c0 33 -7 92 -7 121
c0 86 27 117 100 141c-73 24 -100 59 -100 142z" />
    <glyph glyph-name="cent" unicode="&#xa2;" horiz-adv-x="437" 
d="M224 -83v121c-121 5 -177 51 -177 210c0 148 64 210 176 215v123h54v-125c44 -2 107 -10 107 -10l-3 -55s-95 8 -133 8c-102 0 -137 -42 -137 -156c0 -117 31 -151 145 -151c38 0 127 7 127 7l2 -55s-65 -8 -107 -10v-122h-54z" />
    <glyph glyph-name="quoteleft" unicode="&#x2018;" horiz-adv-x="183" 
d="M137 733l-42 -212h-63l51 212h54z" />
    <glyph glyph-name="quoteright" unicode="&#x2019;" horiz-adv-x="183" 
d="M46 521l42 212h63l-51 -212h-54z" />
    <glyph glyph-name="divide" unicode="&#xf7;" 
d="M233 423v93h63v-93h-63zM60 265v61h409v-61h-409zM233 73v93h63v-93h-63z" />
    <glyph glyph-name="Euro" unicode="&#x20ac;" horiz-adv-x="546" 
d="M21 435h63c14 158 72 241 245 241c92 0 176 -19 176 -19l-4 -55s-93 17 -167 17c-137 0 -177 -64 -186 -184l286 -1v-51h-290c0 -15 -1 -35 -1 -53c0 -16 1 -35 1 -47l290 -1v-51h-286c9 -121 49 -184 187 -184c66 0 166 16 166 16l4 -54s-97 -19 -176 -19
c-173 0 -232 81 -245 241h-63v52h59c0 12 -1 31 -1 47c0 18 1 38 1 53h-59v52z" />
    <glyph glyph-name="Oslash" unicode="&#xd8;" horiz-adv-x="656" 
d="M326 -10c-50 0 -92 8 -126 22l-59 -126l-45 20l61 131c-70 55 -97 157 -97 308c0 237 70 362 266 362c53 0 97 -9 133 -27l54 115l45 -18l-58 -125c66 -58 93 -161 93 -307c0 -247 -69 -355 -267 -355zM124 345c0 -121 16 -202 61 -249l248 529c-28 16 -64 25 -107 25
c-153 0 -202 -101 -202 -305zM326 47c156 0 203 86 203 298c0 114 -16 197 -58 247l-246 -526c27 -13 60 -19 101 -19z" />
    <glyph glyph-name="ampersand" unicode="&#x26;" horiz-adv-x="700" 
d="M323 698c112 0 166 -59 166 -152c0 -96 -48 -142 -158 -187l161 -160c12 35 24 89 30 139l58 -1c-9 -67 -24 -132 -42 -178l130 -126l-38 -42l-121 117c-54 -85 -122 -118 -225 -118c-163 0 -233 82 -233 218c0 107 61 165 158 199c-38 43 -52 83 -52 143
c0 89 67 148 166 148zM286 46c81 0 137 30 178 101l-216 218c-88 -27 -136 -74 -136 -156c0 -104 56 -163 174 -163zM217 545c0 -43 12 -85 45 -117l31 -31c97 38 135 70 135 146c0 63 -30 101 -105 101c-68 0 -106 -41 -106 -99z" />
    <glyph glyph-name="asterisk" unicode="*" 
d="M443 509h-139l43 -132l-47 -14l-43 133l-114 -83l-28 38l114 83l-113 83l29 40l113 -83l44 132l48 -15l-44 -132h137v-50z" />
    <glyph glyph-name="sterling" unicode="&#xa3;" 
d="M443 665l-2 -52s-105 10 -136 10c-69 0 -92 -26 -92 -151v-56h220v-55h-220v-305h167l78 16l11 -54l-81 -17c-103 0 -231 -1 -334 -1v56h100v305h-80v55h80v56c0 166 43 208 142 208c44 0 147 -15 147 -15z" />
    <glyph glyph-name="paragraph" unicode="&#xb6;" 
d="M382 0v649h-126v-649h-55v339h-7c-106 0 -186 72 -186 179c0 108 80 182 186 182h329v-51h-86v-649h-55z" />
    <glyph glyph-name="percent" unicode="%" 
d="M133 658c-42 0 -57 -31 -57 -92c0 -63 15 -97 57 -97s56 33 56 96c0 62 -14 93 -56 93zM164 6l169 700l47 -12l-170 -699zM25 566c0 95 42 136 108 136c65 0 107 -41 107 -137s-43 -140 -107 -140c-65 0 -108 44 -108 141zM307 141c0 95 41 136 107 136
c65 0 107 -41 107 -137s-43 -140 -107 -140c-65 0 -107 44 -107 141zM357 141c0 -64 16 -97 57 -97c42 0 56 33 56 96c0 62 -14 93 -56 93c-41 0 -57 -31 -57 -92z" />
    <glyph glyph-name="plus" unicode="+" 
d="M50 265v60h183v184h64v-184h184v-60h-184v-185h-64v185h-183z" />
    <glyph glyph-name="germandbls" unicode="&#xdf;" horiz-adv-x="599" 
d="M153 0h-61v551c0 137 59 181 188 181c136 0 185 -41 185 -140c0 -71 -27 -100 -75 -125c-46 -24 -63 -36 -63 -63c0 -18 5 -33 86 -73c95 -48 129 -72 129 -147c0 -144 -56 -193 -192 -193c-30 0 -116 8 -116 8l4 52s92 -4 109 -4c101 0 132 36 132 135
c0 46 -25 65 -111 106c-86 40 -104 66 -104 115c0 52 24 71 80 99c41 20 58 41 58 87c0 65 -32 87 -122 87c-86 0 -127 -24 -127 -135v-541z" />
    <glyph glyph-name="quotedblright" unicode="&#x201d;" horiz-adv-x="341" 
d="M53 519l42 212h63l-51 -212h-54zM211 519l42 212h63l-51 -212h-54z" />
    <glyph glyph-name="questiondown" unicode="&#xbf;" horiz-adv-x="386" 
d="M16 -42c0 135 181 210 181 309v38h61s2 -41 2 -46c0 -117 -180 -198 -180 -297c0 -84 38 -112 137 -112c48 0 150 23 150 23l8 -55s-106 -28 -162 -28c-132 0 -197 43 -197 168zM261 499v-99h-66v99h66z" />
    <glyph glyph-name="exclamdown" unicode="&#xa1;" horiz-adv-x="329" 
d="M199 499v-101h-66v101h66zM197 274l1 -474h-63l1 474h61z" />
    <glyph glyph-name="guilsinglright" unicode="&#x203a;" horiz-adv-x="356" 
d="M188 254l-128 98v63l181 -138v-51l-181 -146v65z" />
    <glyph glyph-name="quotedblbase" unicode="&#x201e;" horiz-adv-x="341" 
d="M53 -86l42 212h63l-51 -212h-54zM211 -86l42 212h63l-51 -212h-54z" />
    <glyph glyph-name="quotesinglbase" unicode="&#x201a;" horiz-adv-x="183" 
d="M46 -86l42 212h63l-51 -212h-54z" />
    <glyph glyph-name="asciicircum" unicode="^" 
d="M407 328l-146 272l-140 -272h-65l173 332h63l181 -332h-66z" />
    <glyph glyph-name="periodcentered" unicode="&#xb7;" horiz-adv-x="248" 
d="M85 254v101h66v-101h-66z" />
    <glyph glyph-name="aeacute" unicode="&#x1fd;" horiz-adv-x="828" 
d="M569 44c70 0 181 9 181 9l2 -49s-107 -14 -187 -14c-69 0 -117 20 -147 56l-34 -15c-9 -4 -90 -41 -193 -41c-83 0 -134 52 -134 151c0 110 56 135 179 150l135 13v46c0 73 -34 103 -95 103c-74 0 -189 -10 -189 -10l-3 53s115 13 193 13c72 0 118 -26 137 -82
c35 60 93 82 162 82c128 0 194 -72 194 -236l-2 -48h-337c0 -116 34 -181 138 -181zM198 42c80 0 181 37 194 42c-18 43 -23 101 -23 170l-159 -14c-63 -6 -92 -36 -92 -98c0 -65 32 -100 80 -100zM430 274h280c0 132 -42 183 -135 183c-91 0 -144 -54 -145 -183zM308 648
l208 95l23 -55l-210 -89z" />
    <glyph glyph-name="oslashacute" unicode="&#x1ff;" horiz-adv-x="527" 
d="M265 509c29 0 54 -4 76 -11l-3 -8l-5 -14l-12 -29c-16 6 -35 9 -56 9c-109 0 -145 -59 -145 -198c0 -91 10 -154 49 -187l-13 -32l-8 -13l-4 -9c-64 38 -85 119 -85 241c0 167 51 251 206 251zM265 43c121 0 141 81 141 214c0 80 -15 136 -48 168l15 36l7 13l2 6
c60 -38 86 -114 86 -223c0 -169 -43 -267 -203 -267c-31 0 -57 3 -79 10l5 12l4 13l10 26c17 -6 36 -8 60 -8zM169 71c10 -9 22 -16 36 -20l153 374c-11 9 -23 17 -37 22zM148 648l208 95l23 -55l-210 -89zM97 -98l43 -15l46 113c-16 4 -30 9 -42 17zM385 605l-44 -107
c15 -4 29 -10 41 -18l46 110z" />
    <glyph glyph-name="Abreve" unicode="&#x102;" horiz-adv-x="604" 
d="M36 0l200 697h135l198 -697h-62l-59 191h-294l-56 -191h-62zM281 642l-112 -394h266l-112 394h-42zM151 924h61c2 -47 41 -75 89 -75c49 0 89 28 90 75h61c-3 -76 -65 -127 -151 -127c-85 0 -147 51 -150 127z" />
    <glyph glyph-name="Zdotaccent" unicode="&#x17b;" horiz-adv-x="570" 
d="M65 640v57h440v-84l-369 -536v-20h369v-58h-440v84l369 535v22h-369zM254 827v75h60v-75h-60z" />
    <glyph glyph-name="ellipsis" unicode="&#x2026;" horiz-adv-x="744" 
d="M94 0v101h66v-101h-66zM348 0v101h66v-101h-66zM602 0v101h66v-101h-66z" />
    <glyph glyph-name="perthousand" unicode="&#x2030;" horiz-adv-x="833" 
d="M130 657c-42 0 -57 -30 -57 -92c0 -63 15 -97 57 -97s56 34 56 96c0 63 -14 93 -56 93zM157 5l186 701l46 -12l-186 -699zM22 565c0 95 42 136 108 136c65 0 107 -41 107 -137s-43 -140 -107 -140c-65 0 -108 44 -108 141zM305 141c0 95 41 136 107 136
c65 0 107 -41 107 -137s-43 -140 -107 -140c-65 0 -107 44 -107 141zM355 141c0 -64 16 -97 57 -97c42 0 56 33 56 96c0 62 -14 93 -56 93c-41 0 -57 -31 -57 -92zM562 141c0 95 42 136 108 136c65 0 107 -41 107 -137s-43 -140 -107 -140c-65 0 -108 44 -108 141zM613 141
c0 -64 15 -97 57 -97s56 33 56 96c0 62 -14 93 -56 93s-57 -31 -57 -92z" />
    <glyph glyph-name="onesuperior" unicode="&#xb9;" horiz-adv-x="265" 
d="M33 721l101 69h51v-312h-54v253l-73 -50z" />
    <glyph glyph-name="twosuperior" unicode="&#xb2;" horiz-adv-x="265" 
d="M228 478h-204v48l92 93c30 30 52 54 52 88c0 30 -22 41 -52 41c-31 0 -86 -10 -86 -10l-3 49s57 12 99 12c66 0 97 -28 97 -88c0 -47 -23 -78 -63 -116l-66 -68h134v-49z" />
    <glyph glyph-name="threesuperior" unicode="&#xb3;" horiz-adv-x="265" 
d="M31 789c0 0 56 10 100 10c69 0 102 -25 102 -82c0 -53 -38 -73 -43 -76c32 -10 52 -23 52 -77c0 -66 -39 -96 -105 -96c-49 0 -110 11 -110 11l3 47s56 -8 102 -8c38 0 54 19 54 47c0 38 -21 49 -51 49h-65v47h64c20 0 44 22 44 51c0 25 -14 38 -51 38
c-43 0 -93 -8 -93 -8z" />
    <glyph glyph-name="dagger" unicode="&#x2020;" 
d="M61 439v59h174v194h59v-194h174v-59h-174v-516h-59v516h-174z" />
    <glyph glyph-name="currency" unicode="&#xa4;" horiz-adv-x="529" 
d="M437 37l-70 70c-61 -43 -144 -43 -205 1l-69 -71l-43 43l71 69c-44 61 -44 144 -1 205l-70 70l43 43l69 -71c61 43 144 43 205 0l70 71l43 -43l-71 -70c43 -61 43 -144 0 -205l71 -69zM180 167c47 -45 123 -45 169 0c46 47 46 123 0 169s-122 46 -169 0
c-45 -46 -45 -122 0 -169z" />
    <glyph glyph-name="logicalnot" unicode="&#xac;" 
d="M64 341h404v-223h-59v165h-345v58z" />
  </font>
</defs>
</svg>
